<?xml version="1.0" encoding="utf-8"?>
<!-- Generator: Adobe Illustrator 24.0.3, SVG Export Plug-In . SVG Version: 6.00 Build 0)  -->
<svg version="1.1" id="Layer_1" xmlns="http://www.w3.org/2000/svg" xmlns:xlink="http://www.w3.org/1999/xlink" x="0px" y="0px"
	 viewBox="0 0 210.4 210.4" style="enable-background:new 0 0 210.4 210.4;" xml:space="preserve">
<g>
	<g>
		<g>
			<path d="M105.2,0C47.2,0,0,47.2,0,105.2s47.2,105.2,105.2,105.2s105.2-47.2,105.2-105.2S163.2,0,105.2,0z M105.2,202.6
				c-53.7,0-97.4-43.7-97.4-97.4S51.5,7.8,105.2,7.8s97.4,43.7,97.4,97.4S158.9,202.6,105.2,202.6z"/>
			<path d="M155.9,101.3H54.6c-2.2,0-3.9,1.7-3.9,3.9s1.7,3.9,3.9,3.9h101.3c2.2,0,3.9-1.7,3.9-3.9S158,101.3,155.9,101.3z"/>
		</g>
	</g>
</g>
</svg>
